# xmcd CD database file
#
# Track frame offsets:
#	180
#	25896
#	49012
#	77569
#	107336
#	133991
#	158910
#	185351
#
# Disc length: 2779 seconds
#
# Revision: 0
# Processed by: cddbd v1.5.2PL0 Copyright (c) Steve Scherf et al.
# Submitted via: CDex 1.51
#
DISCID=5d0ad908
DTITLE=Keith Killgo - Mood for Love
DYEAR=1996
DGENRE=Jazz
TTITLE0=Mood for Love
TTITLE1=Jenny
TTITLE2=Way Back
TTITLE3=Gypsy's Creed
TTITLE4=Station
TTITLE5=All for You
TTITLE6=Damiah Janee
TTITLE7=Just Another
EXTD=YEAR: 1996
EXTT0=
EXTT1=
EXTT2=
EXTT3=
EXTT4=
EXTT5=
EXTT6=
EXTT7=
PLAYORDER=
